<svg width="68" height="68" viewBox="0 0 68 68" fill="none" xmlns="http://www.w3.org/2000/svg">
<rect width="68" height="68" rx="34" fill="#FDDC2B"/>
<path fill-rule="evenodd" clip-rule="evenodd" d="M33.0859 19.2865C33.6871 19.1454 34.3128 19.1454 34.914 19.2865C35.6008 19.4477 36.2112 19.8457 36.9058 20.2985C36.9541 20.33 37.0028 20.3617 37.0519 20.3937L46.7184 26.6769C46.7416 26.692 46.765 26.7072 46.7886 26.7225L47.0893 26.918C47.1134 26.9337 47.1383 26.9497 47.1639 26.9662C47.4382 27.1432 47.7834 27.3659 48.0463 27.6805C48.2737 27.9527 48.4446 28.2676 48.5489 28.6066C48.6694 28.9985 48.668 29.4092 48.6669 29.7357C48.6667 29.7661 48.6666 29.7957 48.6666 29.8246V39.6553C48.6667 40.7285 48.6667 41.6144 48.6077 42.3359C48.5465 43.0854 48.4151 43.7743 48.0853 44.4215C47.574 45.425 46.7581 46.2409 45.7546 46.7522C45.1075 47.0819 44.4185 47.2133 43.6691 47.2746C42.9475 47.3335 42.0617 47.3335 40.9884 47.3335H27.0115C25.9383 47.3335 25.0525 47.3335 24.3309 47.2746C23.5814 47.2133 22.8925 47.0819 22.2454 46.7522C21.2418 46.2409 20.4259 45.425 19.9146 44.4215C19.5849 43.7743 19.4535 43.0854 19.3922 42.3359C19.3333 41.6143 19.3333 40.7285 19.3333 39.6552L19.3333 29.8246C19.3333 29.7957 19.3332 29.7661 19.3331 29.7357C19.332 29.4092 19.3306 28.9985 19.4511 28.6066C19.5554 28.2676 19.7262 27.9527 19.9537 27.6805C20.2166 27.3659 20.5617 27.1432 20.8361 26.9662C20.8616 26.9497 20.8865 26.9337 20.9107 26.918L21.2113 26.7225C21.2349 26.7072 21.2584 26.692 21.2815 26.6769C21.2931 26.6694 21.3045 26.662 21.3159 26.6546L30.948 20.3937C30.9972 20.3617 31.0459 20.33 31.0942 20.2985C31.7887 19.8457 32.3992 19.4477 33.0859 19.2865ZM32.4013 22.6295L23.1132 28.6668L32.4013 34.7041C33.3285 35.3068 33.5229 35.4106 33.6953 35.4511C33.8957 35.4981 34.1043 35.4981 34.3047 35.4511C34.477 35.4106 34.6715 35.3068 35.5986 34.7041L44.8868 28.6668L35.5986 22.6295C34.6715 22.0269 34.477 21.9231 34.3047 21.8826C34.1043 21.8356 33.8957 21.8356 33.6953 21.8826C33.5229 21.9231 33.3285 22.0269 32.4013 22.6295ZM46 31.1238L37.0519 36.94C37.0028 36.9719 36.9541 37.0037 36.9058 37.0352C36.2113 37.488 35.6008 37.886 34.914 38.0472C34.3128 38.1883 33.6871 38.1883 33.0859 38.0472C32.3992 37.886 31.7887 37.488 31.0942 37.0352C31.0459 37.0037 30.9972 36.9719 30.948 36.94L22 31.1238V39.6002C22 40.7423 22.001 41.5187 22.05 42.1188C22.0978 42.7033 22.1844 43.0023 22.2906 43.2108C22.5463 43.7126 22.9542 44.1205 23.456 44.3762C23.6645 44.4824 23.9635 44.569 24.548 44.6168C25.1481 44.6658 25.9245 44.6668 27.0666 44.6668H40.9333C42.0754 44.6668 42.8518 44.6658 43.4519 44.6168C44.0365 44.569 44.3354 44.4824 44.544 44.3762C45.0457 44.1205 45.4537 43.7126 45.7093 43.2108C45.8156 43.0023 45.9021 42.7033 45.9499 42.1188C45.9989 41.5187 46 40.7423 46 39.6002V31.1238Z" fill="#211145"/>
</svg>
