<svg width="44" height="44" viewBox="0 0 44 44" fill="none" xmlns="http://www.w3.org/2000/svg">
<rect width="44" height="44" rx="22" fill="#FDDC2B"/>
<path d="M14.983 17.1973C16.1914 17.1973 17.171 16.2177 17.171 15.0093C17.171 13.8009 16.1914 12.8213 14.983 12.8213C13.7746 12.8213 12.795 13.8009 12.795 15.0093C12.795 16.2177 13.7746 17.1973 14.983 17.1973Z" fill="#211145"/>
<path d="M19.237 18.8547V30.9937H23.006V24.9907C23.006 23.4067 23.304 21.8727 25.268 21.8727C27.205 21.8727 27.229 23.6837 27.229 25.0907V30.9947H31V24.3377C31 21.0677 30.296 18.5547 26.474 18.5547C24.639 18.5547 23.409 19.5617 22.906 20.5147H22.855V18.8547H19.237ZM13.095 18.8547H16.87V30.9937H13.095V18.8547Z" fill="#211145"/>
</svg>
