<svg width="108" height="40" viewBox="0 0 108 40" fill="none" xmlns="http://www.w3.org/2000/svg">
<g clip-path="url(#clip0_1391_11717)">
<path d="M56.7892 11.7084C56.7892 12.9096 55.8215 13.8772 54.6203 13.8772C53.4191 13.8772 52.4515 12.9096 52.4515 11.7084C52.4515 10.5072 53.3858 9.53952 54.6203 9.53952C55.8549 9.57289 56.7892 10.5405 56.7892 11.7084ZM47.8469 16.0794C47.8469 16.2796 47.8469 16.6133 47.8469 16.6133C47.8469 16.6133 46.8125 15.2786 44.6103 15.2786C40.9733 15.2786 38.1372 18.048 38.1372 21.8852C38.1372 25.689 40.94 28.4918 44.6103 28.4918C46.8459 28.4918 47.8469 27.1238 47.8469 27.1238V27.691C47.8469 27.9579 48.0471 28.1581 48.314 28.1581H51.0167V15.6123C51.0167 15.6123 48.5476 15.6123 48.314 15.6123C48.0471 15.6123 47.8469 15.8458 47.8469 16.0794ZM47.8469 24.1208C47.3464 24.8548 46.3454 25.4888 45.1442 25.4888C43.0087 25.4888 41.3738 24.1541 41.3738 21.8852C41.3738 19.6163 43.0087 18.2816 45.1442 18.2816C46.312 18.2816 47.3798 18.9489 47.8469 19.6496V24.1208ZM53.0187 15.6123H56.2219V28.1581H53.0187V15.6123ZM100.867 15.2786C98.6644 15.2786 97.63 16.6133 97.63 16.6133V9.57289H94.4268V28.1581C94.4268 28.1581 96.8959 28.1581 97.1295 28.1581C97.3964 28.1581 97.5966 27.9246 97.5966 27.691V27.1238C97.5966 27.1238 98.631 28.4918 100.833 28.4918C104.47 28.4918 107.306 25.689 107.306 21.8852C107.306 18.0814 104.47 15.2786 100.867 15.2786ZM100.333 25.4554C99.0981 25.4554 98.1305 24.8215 97.63 24.0874V19.6163C98.1305 18.9489 99.1982 18.2482 100.333 18.2482C102.468 18.2482 104.103 19.5829 104.103 21.8518C104.103 24.1208 102.468 25.4554 100.333 25.4554ZM92.7585 20.7174V28.1915H89.5553V21.0844C89.5553 19.0157 88.8879 18.1815 87.0861 18.1815C86.1185 18.1815 85.1175 18.682 84.4835 19.4161V28.1581H81.2803V15.6123H83.8162C84.0831 15.6123 84.2833 15.8458 84.2833 16.0794V16.6133C85.2176 15.6456 86.4522 15.2786 87.6867 15.2786C89.0881 15.2786 90.256 15.679 91.1902 16.4798C92.3247 17.4141 92.7585 18.6153 92.7585 20.7174ZM73.5059 15.2786C71.3037 15.2786 70.2693 16.6133 70.2693 16.6133V9.57289H67.0661V28.1581C67.0661 28.1581 69.5352 28.1581 69.7688 28.1581C70.0357 28.1581 70.2359 27.9246 70.2359 27.691V27.1238C70.2359 27.1238 71.2703 28.4918 73.4725 28.4918C77.1095 28.4918 79.9457 25.689 79.9457 21.8852C79.979 18.0814 77.1429 15.2786 73.5059 15.2786ZM72.972 25.4554C71.7374 25.4554 70.7698 24.8215 70.2693 24.0874V19.6163C70.7698 18.9489 71.8375 18.2482 72.972 18.2482C75.1075 18.2482 76.7425 19.5829 76.7425 21.8518C76.7425 24.1208 75.1075 25.4554 72.972 25.4554ZM64.2967 15.2786C65.2643 15.2786 65.7648 15.4454 65.7648 15.4454V18.4151C65.7648 18.4151 63.0955 17.5142 61.4271 19.4161V28.1915H58.2239V15.6123C58.2239 15.6123 60.6931 15.6123 60.9266 15.6123C61.1936 15.6123 61.3938 15.8458 61.3938 16.0794V16.6133C61.9944 15.9126 63.2957 15.2786 64.2967 15.2786ZM31.0301 27.0237C30.8632 26.6233 30.6964 26.1895 30.5296 25.8225C30.2626 25.2219 29.9957 24.6546 29.7621 24.1208L29.7288 24.0874C27.4265 19.0824 24.9573 14.0107 22.3547 9.00565L22.2546 8.80545C21.9877 8.30495 21.7208 7.77108 21.4538 7.23722C21.1202 6.63662 20.7865 6.00265 20.2526 5.40205C19.1849 4.06738 17.65 3.33331 16.0151 3.33331C14.3467 3.33331 12.8452 4.06738 11.7441 5.33531C11.2436 5.93592 10.8766 6.56988 10.5429 7.17048C10.276 7.70435 10.0091 8.23822 9.74212 8.73872L9.64202 8.93892C7.07279 13.9439 4.57028 19.0157 2.26798 24.0207L2.23461 24.0874C2.00105 24.6213 1.73411 25.1885 1.46718 25.7891C1.30035 26.1561 1.13351 26.5565 0.966679 26.9903C0.532912 28.2249 0.399446 29.3927 0.566279 30.5939C0.933313 33.0964 2.60165 35.1985 4.90395 36.1328C5.77148 36.4998 6.67238 36.6666 7.60665 36.6666C7.87359 36.6666 8.20725 36.6333 8.47419 36.5999C9.57529 36.4664 10.7098 36.0994 11.8109 35.4654C13.1789 34.698 14.4802 33.5969 15.9483 31.9953C17.4165 33.5969 18.7511 34.698 20.0858 35.4654C21.1869 36.0994 22.3214 36.4664 23.4225 36.5999C23.6894 36.6333 24.0231 36.6666 24.29 36.6666C25.2243 36.6666 26.1585 36.4998 26.9927 36.1328C29.3284 35.1985 30.9633 33.063 31.3304 30.5939C31.5973 29.4261 31.4638 28.2582 31.0301 27.0237ZM15.9817 28.7587C14.1799 26.4898 13.0121 24.3543 12.6117 22.5525C12.4448 21.7851 12.4115 21.1178 12.5116 20.5172C12.5783 19.9833 12.7785 19.5162 13.0454 19.1158C13.6794 18.2149 14.7471 17.6476 15.9817 17.6476C17.2163 17.6476 18.3174 18.1815 18.918 19.1158C19.1849 19.5162 19.3851 19.9833 19.4518 20.5172C19.5519 21.1178 19.5186 21.8185 19.3517 22.5525C18.9513 24.321 17.7835 26.4564 15.9817 28.7587ZM29.295 30.327C29.0614 32.062 27.8936 33.5635 26.2586 34.2309C25.4578 34.5645 24.5903 34.6646 23.7228 34.5645C22.8886 34.4644 22.0544 34.1975 21.1869 33.697C19.9857 33.0297 18.7845 31.9953 17.3831 30.4604C19.5853 27.7577 20.92 25.2886 21.4205 23.0864C21.654 22.052 21.6874 21.1178 21.5873 20.2502C21.4538 19.4161 21.1535 18.6486 20.6864 17.9813C19.652 16.4798 17.917 15.6123 15.9817 15.6123C14.0464 15.6123 12.3114 16.5132 11.277 17.9813C10.8099 18.6486 10.5096 19.4161 10.3761 20.2502C10.2426 21.1178 10.276 22.0854 10.5429 23.0864C11.0434 25.2886 12.4115 27.7911 14.5803 30.4938C13.2123 32.0287 11.9777 33.063 10.7765 33.7304C9.90895 34.2309 9.07479 34.4978 8.24062 34.5979C7.33972 34.698 6.47218 34.5645 5.70475 34.2642C4.06978 33.5969 2.90195 32.0954 2.66838 30.3603C2.56828 29.5262 2.63501 28.692 2.96868 27.7577C3.06878 27.4241 3.23561 27.0904 3.40245 26.69C3.63602 26.1561 3.90295 25.5889 4.16988 25.0217L4.20325 24.9549C6.50555 19.9833 8.97469 14.9116 11.5439 9.97329L11.644 9.77309C11.911 9.27258 12.1779 8.73872 12.4448 8.23822C12.7118 7.70435 13.0121 7.20385 13.3791 6.77008C14.0798 5.96928 15.0141 5.53552 16.0484 5.53552C17.0828 5.53552 18.0171 5.96928 18.7178 6.77008C19.0848 7.20385 19.3851 7.70435 19.652 8.23822C19.919 8.73872 20.1859 9.27258 20.4528 9.77309L20.5529 9.97329C23.0888 14.9449 25.5579 20.0167 27.8602 24.9883V25.0217C28.1272 25.5555 28.3607 26.1561 28.6277 26.69C28.7945 27.0904 28.9613 27.4241 29.0614 27.7577C29.3284 28.6253 29.4285 29.4594 29.295 30.327Z" fill="white"/>
</g>
<defs>
<clipPath id="clip0_1391_11717">
<rect width="106.667" height="40" fill="white" transform="translate(0.5)"/>
</clipPath>
</defs>
</svg>
