<svg width="107" height="40" viewBox="0 0 107 40" fill="none" xmlns="http://www.w3.org/2000/svg">
<g clip-path="url(#clip0_1391_11700)">
<path d="M22.7894 9.67156C22.6841 9.67156 20.5985 9.62943 20.5985 9.62943C20.5985 9.62943 18.85 7.9441 18.6815 7.7545C18.6183 7.6913 18.534 7.64917 18.4497 7.64917V33.54L26.2654 31.6018C26.2654 31.6018 23.0844 10.0508 23.0633 9.90329C23.0212 9.75583 22.8948 9.67156 22.7894 9.67156Z" fill="white"/>
<path d="M36.841 20.9211C35.9351 20.4366 35.4716 20.0152 35.4716 19.4465C35.4716 18.7302 36.1247 18.2667 37.1359 18.2667C38.3156 18.2667 39.369 18.7513 39.369 18.7513L40.1906 16.2233C40.1906 16.2233 39.4322 15.6334 37.1991 15.6334C34.0813 15.6334 31.9114 17.4241 31.9114 19.931C31.9114 21.3635 32.9226 22.4379 34.2708 23.2174C35.3663 23.8283 35.7455 24.2707 35.7455 24.9238C35.7455 25.5979 35.1978 26.1456 34.1866 26.1456C32.6909 26.1456 31.2583 25.3662 31.2583 25.3662L30.3735 27.8941C30.3735 27.8941 31.6797 28.7789 33.8917 28.7789C37.0938 28.7789 39.4111 27.1989 39.4111 24.355C39.39 22.8171 38.2314 21.7216 36.841 20.9211Z" fill="white"/>
<path d="M49.6074 15.5915C48.0274 15.5915 46.7845 16.3499 45.8365 17.4874L45.7943 17.4664L47.1636 10.3037H43.6034L40.1274 28.5474H43.6877L44.8674 22.3117C45.3309 19.9522 46.5527 18.4986 47.6903 18.4986C48.4908 18.4986 48.8068 19.0464 48.8068 19.8258C48.8068 20.3104 48.7647 20.9213 48.6594 21.4058L47.3111 28.5474H50.8714L52.2618 21.1741C52.4092 20.3946 52.5146 19.4677 52.5146 18.8357C52.5356 16.8133 51.4823 15.5915 49.6074 15.5915Z" fill="white"/>
<path d="M60.6038 15.5911C56.3062 15.5911 53.4622 19.4674 53.4622 23.786C53.4622 26.5458 55.1686 28.7788 58.3708 28.7788C62.5841 28.7788 65.4281 25.0079 65.4281 20.5839C65.4491 18.0349 63.9534 15.5911 60.6038 15.5911ZM58.8553 26.0612C57.6334 26.0612 57.1278 25.029 57.1278 23.7228C57.1278 21.6794 58.1812 18.3509 60.1193 18.3509C61.3833 18.3509 61.8046 19.4463 61.8046 20.4997C61.8046 22.6906 60.7302 26.0612 58.8553 26.0612Z" fill="white"/>
<path d="M74.5714 15.5911C72.1698 15.5911 70.8005 17.7189 70.8005 17.7189H70.7584L70.969 15.8018H67.8091C67.6616 17.0869 67.3667 19.0671 67.0928 20.5418L64.6069 33.6031H68.1672L69.1573 28.3153H69.2416C69.2416 28.3153 69.9789 28.7788 71.3272 28.7788C75.5194 28.7788 78.2581 24.4812 78.2581 20.1415C78.2581 17.7399 77.1837 15.5911 74.5714 15.5911ZM71.1586 26.1034C70.2317 26.1034 69.684 25.5767 69.684 25.5767L70.2738 22.2482C70.6952 20.0151 71.8538 18.5405 73.0968 18.5405C74.1922 18.5405 74.5293 19.5517 74.5293 20.4997C74.5293 22.817 73.16 26.1034 71.1586 26.1034Z" fill="white"/>
<path d="M83.3556 10.4722C82.218 10.4722 81.3121 11.3781 81.3121 12.5367C81.3121 13.5901 81.9862 14.3274 82.9974 14.3274H83.0396C84.1561 14.3274 85.1041 13.569 85.1251 12.2629C85.1251 11.2306 84.4299 10.4722 83.3556 10.4722Z" fill="white"/>
<path d="M78.363 28.5261H81.9233L84.3459 15.8862H80.7646L78.363 28.5261Z" fill="white"/>
<path d="M93.4254 15.8653H90.9395L91.0659 15.2755C91.2766 14.0536 91.9929 12.9792 93.1937 12.9792C93.8257 12.9792 94.3312 13.1688 94.3312 13.1688L95.0265 10.367C95.0265 10.367 94.4155 10.051 93.0883 10.051C91.8243 10.051 90.5603 10.4091 89.5913 11.2307C88.3694 12.263 87.8006 13.7587 87.5267 15.2755L87.4214 15.8653H85.7572L85.2305 18.5619H86.8947L84.9988 28.5474H88.559L90.455 18.5619H92.9198L93.4254 15.8653Z" fill="white"/>
<path d="M102.02 15.8862C102.02 15.8862 99.7873 21.511 98.7972 24.5867H98.755C98.6918 23.5966 97.8702 15.8862 97.8702 15.8862H94.1204L96.2692 27.4939C96.3113 27.7467 96.2902 27.9152 96.1849 28.0837C95.7636 28.8843 95.0684 29.6637 94.2468 30.2325C93.5727 30.7171 92.8143 31.033 92.2244 31.2437L93.2145 34.2773C93.9308 34.1298 95.4476 33.5189 96.7116 32.3392C98.3337 30.8224 99.8505 28.4629 101.388 25.2608L105.749 15.8862H102.02Z" fill="white"/>
<path d="M11.9401 4.27808C12.6774 4.25702 13.2886 4.50982 13.7731 5.01538C13.8152 5.03646 13.8365 5.07874 13.8786 5.12085C13.9627 5.09988 14.0259 5.10034 14.11 5.10034C15.2055 5.10038 16.1319 5.73219 16.7429 6.91187C16.9325 7.29106 17.0805 7.64916 17.1647 7.94409C17.7124 7.77557 18.0495 7.66968 18.0495 7.66968C18.1761 7.62757 18.5129 7.5862 18.6813 7.75464C18.8505 7.94487 20.5983 9.62964 20.5983 9.62964C20.5983 9.62964 22.6844 9.67163 22.7897 9.67163C22.895 9.67182 23.0206 9.75586 23.0417 9.90308C23.0627 10.0502 26.23 31.504 26.2653 31.6013L18.4499 33.5398L0.416687 30.4216C0.42789 30.335 2.56592 13.8001 2.60809 13.2107C2.71342 12.4313 2.7339 12.4097 3.55536 12.157C3.59749 12.157 4.73518 11.7992 6.35712 11.2937C6.54671 10.0508 7.15819 8.44983 7.95868 7.16479C9.11734 5.35307 10.5287 4.32021 11.9401 4.27808ZM14.11 13.6951C14.0971 13.6885 13.3176 13.2957 11.7927 13.4001C7.83241 13.6531 6.04214 16.4126 6.21063 19.1511C6.42129 22.4164 9.66517 22.2901 9.79169 24.2703C9.83382 24.7337 9.51758 25.4293 8.69598 25.4714C7.43203 25.5555 5.83075 24.3542 5.83075 24.3542L5.2204 26.946C5.24027 26.9671 6.8188 28.6307 9.66571 28.4841C12.0671 28.3365 13.7102 26.4186 13.5417 23.6169C13.3097 20.057 9.32866 19.7196 9.22333 18.2029C9.22333 17.9284 9.22399 16.8131 10.9929 16.7078C12.1935 16.6236 13.2048 17.0867 13.2048 17.0867L14.11 13.6951ZM11.9821 5.22632C9.81231 5.28963 7.89493 8.70256 7.38934 10.9988C8.14767 10.7671 8.99054 10.5138 9.85419 10.24C10.1281 8.78656 10.8235 7.29106 11.7292 6.32202C12.0663 5.94282 12.4457 5.64736 12.8249 5.45776C12.5932 5.28932 12.3191 5.22632 11.9821 5.22632ZM13.4362 6.19507C13.036 6.36357 12.6773 6.65855 12.4245 6.93237C11.7505 7.6696 11.2029 8.76523 10.9079 9.88159C11.9401 9.56561 12.9727 9.24975 13.9206 8.95483C13.9416 8.17537 13.8575 7.01655 13.4362 6.19507ZM14.447 6.11108C14.763 6.95375 14.8679 7.96513 14.8679 8.6814C15.3733 8.5129 15.8372 8.3654 16.2585 8.23901C16.0478 7.50168 15.5214 6.27962 14.447 6.11108Z" fill="white"/>
</g>
<defs>
<clipPath id="clip0_1391_11700">
<rect width="105.833" height="40" fill="white" transform="translate(0.416687)"/>
</clipPath>
</defs>
</svg>
