<svg width="96" height="40" viewBox="0 0 96 40" fill="none" xmlns="http://www.w3.org/2000/svg">
<g clip-path="url(#clip0_1391_11705)">
<path d="M26.3253 25.9032C23.6725 25.9032 21.9163 23.8936 21.4264 23.1152C22.055 18.1908 23.8944 16.6338 26.3253 16.6338C28.7287 16.6338 30.5958 18.5166 30.5958 21.2684C30.5958 24.0203 28.7287 25.9032 26.3253 25.9032ZM26.3253 13.6104C21.9995 13.6104 19.5778 16.3713 18.8845 19.2137C18.0988 17.7653 17.5165 15.8282 17.0636 14.0268H11.0831V21.3137C11.0831 23.957 9.8538 25.9122 7.45054 25.9122C5.04727 25.9122 3.67003 23.957 3.67003 21.3137L3.69775 14.0268H0.25V21.3137C0.25 23.441 0.952492 25.3691 2.23731 26.745C3.55911 28.1662 5.36155 28.9084 7.45054 28.9084C11.61 28.9084 14.5125 25.7855 14.5125 21.3137V16.4166C14.9468 18.0278 15.9821 21.1236 17.9602 23.8393L16.1115 34.1496H19.6148L20.8348 26.8445C21.2323 27.1704 21.6575 27.4601 22.1104 27.7226C23.2843 28.4468 24.6246 28.8541 26.0111 28.8994C26.0111 28.8994 26.2236 28.9084 26.3346 28.9084C30.6235 28.9084 34.0342 25.6588 34.0342 21.2684C34.0342 16.8782 30.6143 13.6104 26.3253 13.6104Z" fill="white"/>
<path d="M75.8604 15.5845V14.0276H72.4774V28.4475H75.9066V22.799C75.9066 19.323 76.2301 16.8247 80.9904 17.1505V13.8556C78.772 13.6926 77.0435 14.1452 75.8604 15.5845Z" fill="white"/>
<path d="M52.0506 14.0279L49.5641 24.1119L46.9113 14.0279H42.5485L39.8864 24.1119L37.4092 14.0279H33.9337L37.742 28.457H41.8645L44.7299 18.21L47.5676 28.457H51.6901L55.7202 14.0279H52.0506Z" fill="white"/>
<path d="M63.2721 25.9122C60.8319 25.9122 59.0017 24.0294 59.0017 21.2684C59.0017 18.5076 60.8412 16.6338 63.2721 16.6338C65.6754 16.6338 67.5426 18.5166 67.5426 21.2684C67.5426 24.0203 65.6754 25.9122 63.2721 25.9122ZM63.2721 13.6104C58.9555 13.6104 55.5725 16.8873 55.5725 21.2684C55.5725 25.6496 58.9555 28.8994 63.2721 28.8994C67.561 28.8994 70.9719 25.6496 70.9719 21.2684C70.9719 16.8873 67.5703 13.6104 63.2721 13.6104Z" fill="white"/>
<path d="M85.9084 21.3593H86.7033L91.4913 28.4561H95.3643L89.8552 20.5898C92.5266 19.567 94.3198 16.8966 94.3198 14.0271H90.8997C90.8997 17.141 88.3948 18.3178 85.9084 18.3178V8.33331H82.4698V28.4561H85.8991L85.9084 21.3593Z" fill="white"/>
</g>
<defs>
<clipPath id="clip0_1391_11705">
<rect width="95" height="40" fill="white" transform="translate(0.25)"/>
</clipPath>
</defs>
</svg>
