<svg width="44" height="44" viewBox="0 0 44 44" fill="none" xmlns="http://www.w3.org/2000/svg">
<rect width="44" height="44" rx="22" fill="#FDDC2B"/>
<path d="M30.9469 18.3054C30.9369 17.5481 30.7951 16.7982 30.5279 16.0894C30.2963 15.4916 29.9425 14.9486 29.4891 14.4953C29.0358 14.0419 28.4928 13.6881 27.8949 13.4564C27.1953 13.1938 26.4561 13.0518 25.7089 13.0364C24.7469 12.9934 24.4419 12.9814 21.9999 12.9814C19.5579 12.9814 19.2449 12.9814 18.2899 13.0364C17.5431 13.0519 16.8043 13.1939 16.1049 13.4564C15.507 13.6879 14.964 14.0417 14.5106 14.4951C14.0572 14.9485 13.7034 15.4915 13.4719 16.0894C13.2088 16.7886 13.0671 17.5276 13.0529 18.2744C13.0099 19.2374 12.9969 19.5424 12.9969 21.9844C12.9969 24.4264 12.9969 24.7384 13.0529 25.6944C13.0679 26.4424 13.2089 27.1804 13.4719 27.8814C13.7038 28.4792 14.0578 29.022 14.5114 29.4752C14.9649 29.9284 15.508 30.282 16.1059 30.5134C16.8034 30.7866 17.5423 30.9388 18.2909 30.9634C19.2539 31.0064 19.5589 31.0194 22.0009 31.0194C24.4429 31.0194 24.7559 31.0194 25.7109 30.9634C26.4581 30.9487 27.1973 30.807 27.8969 30.5444C28.4946 30.3125 29.0375 29.9586 29.4908 29.5053C29.9441 29.052 30.298 28.5091 30.5299 27.9114C30.7929 27.2114 30.9339 26.4734 30.9489 25.7244C30.9919 24.7624 31.0049 24.4574 31.0049 22.0144C31.0029 19.5724 31.0029 19.2624 30.9469 18.3054ZM21.9939 26.6024C19.4399 26.6024 17.3709 24.5334 17.3709 21.9794C17.3709 19.4254 19.4399 17.3564 21.9939 17.3564C23.22 17.3564 24.3959 17.8435 25.2629 18.7105C26.1299 19.5775 26.6169 20.7533 26.6169 21.9794C26.6169 23.2055 26.1299 24.3814 25.2629 25.2484C24.3959 26.1154 23.22 26.6024 21.9939 26.6024ZM26.8009 18.2634C26.6593 18.2636 26.5191 18.2358 26.3883 18.1817C26.2574 18.1275 26.1385 18.0481 26.0384 17.948C25.9383 17.8479 25.8589 17.729 25.8047 17.5981C25.7506 17.4673 25.7228 17.327 25.7229 17.1854C25.7229 17.0439 25.7508 16.9038 25.805 16.7731C25.8591 16.6424 25.9385 16.5236 26.0385 16.4235C26.1386 16.3235 26.2574 16.2441 26.3881 16.19C26.5188 16.1358 26.659 16.1079 26.8004 16.1079C26.9419 16.1079 27.0821 16.1358 27.2128 16.19C27.3435 16.2441 27.4623 16.3235 27.5624 16.4235C27.6624 16.5236 27.7418 16.6424 27.7959 16.7731C27.8501 16.9038 27.8779 17.0439 27.8779 17.1854C27.8779 17.7814 27.3959 18.2634 26.8009 18.2634Z" fill="#211145"/>
<path d="M21.994 24.9816C23.6525 24.9816 24.997 23.6371 24.997 21.9786C24.997 20.3201 23.6525 18.9756 21.994 18.9756C20.3355 18.9756 18.991 20.3201 18.991 21.9786C18.991 23.6371 20.3355 24.9816 21.994 24.9816Z" fill="#211145"/>
</svg>
