<svg width="122" height="40" viewBox="0 0 122 40" fill="none" xmlns="http://www.w3.org/2000/svg">
<g clip-path="url(#clip0_1391_11713)">
<path d="M9.77564 10.6173C14.7498 10.6173 18.8013 14.6688 18.8013 19.683C18.8013 24.6973 14.7498 28.7488 9.77564 28.7488C4.80151 28.7488 0.75 24.7374 0.75 19.683C0.75 14.6287 4.80151 10.6173 9.77564 10.6173ZM80.5367 10.4167V26.3018C80.5367 27.5052 81.018 27.8261 81.9406 28.0668L81.9808 28.2674H76.8863V26.3018C76.2846 27.7459 75.041 28.6284 73.4365 28.6284C70.7087 28.6284 68.9036 26.1414 68.9036 22.4509C68.9036 20.3649 69.5053 18.5999 70.6285 17.2762C71.7116 15.9925 73.1958 15.3106 74.8405 15.3106C75.6428 15.3106 76.3247 15.471 76.8863 15.8321V13.6659C76.8863 13.1846 76.766 12.8636 76.5253 12.623C76.2044 12.3422 75.6829 12.2218 74.8806 12.302H74.8405V12.1015L80.5367 10.4167ZM99.8716 15.3507V26.3018C99.8716 27.5052 100.353 27.8261 101.276 28.0668V28.2674H96.1811V26.2617C95.5794 27.7058 94.2556 28.6284 92.7714 28.6284C91.0064 28.6284 89.8832 27.8261 89.442 26.2617L89.3617 25.8606C89.2815 25.4594 89.2414 25.0583 89.2414 24.6571V18.8005C89.2414 17.5169 88.9606 17.1157 87.8374 17.0355H87.7973V16.8349L92.8918 15.3507V24.5769C92.8918 25.9408 93.4935 26.703 94.6167 26.703C95.2986 26.703 95.8602 26.3419 96.1811 25.7402V18.8005C96.1811 17.4767 95.9404 17.0756 95.0178 16.9954H94.9777V16.7948L99.8716 15.3507ZM63.0871 15.3106C64.451 15.3106 65.7747 15.792 66.6572 16.6344C67.6601 17.5971 68.1816 19.0011 68.2217 20.8463V20.8864H60.5599C60.3995 23.534 62.0441 25.7001 64.2103 25.7803C65.7747 25.9007 67.1386 24.9379 67.9008 23.3735L68.1013 23.4537C67.6601 26.382 65.9352 28.5883 62.9266 28.5883C59.5169 28.5883 57.5915 25.7402 57.5113 22.1701V21.2475C57.6717 19.683 58.1531 18.279 58.9955 17.2361C59.5169 16.5942 60.1187 16.1129 60.8407 15.792C61.4424 15.471 62.3249 15.3106 63.047 15.3106H63.0871ZM116.158 15.3507C118.324 15.3507 119.648 16.7146 119.648 19.0412V26.5024C119.648 27.3849 120.049 27.8261 121.052 28.0668H121.092V28.2674H115.957V19.1615C115.957 17.7174 115.436 16.9954 114.353 16.9954C113.47 16.9954 113.029 17.6372 112.788 18.1988C112.828 18.4796 112.869 18.7604 112.869 19.0412V26.6227C112.869 27.5453 113.149 27.8663 113.952 28.0668H113.992V28.2674H109.218V19.1615C109.218 17.7174 108.657 16.9954 107.614 16.9954C106.771 16.9954 106.33 17.5971 106.129 18.0785V26.6628C106.129 27.5855 106.41 27.9064 107.212 28.1069H107.253V28.3075H102.479V18.7604C102.479 17.4767 102.158 17.0756 101.075 16.9954H101.035V16.7948L106.129 15.3908V17.5169C106.651 16.153 107.854 15.3507 109.379 15.3507C111.104 15.3507 112.307 16.1931 112.708 17.7174C113.23 16.2733 114.553 15.3507 116.158 15.3507ZM42.99 11.219L47.7636 22.4108L52.5371 11.219H57.6717L57.6316 11.4195L57.5733 11.4325C56.6887 11.6341 56.2276 11.9649 56.2276 13.0642V26.703C56.3078 27.5855 56.7892 27.8663 57.6316 28.0668H57.6717V28.2674H51.1331V28.0668H51.1732C52.0156 27.8663 52.497 27.5855 52.5772 26.703V13.4252L46.2793 28.2273H45.9183L39.7809 13.8264V26.382C39.7809 27.5052 40.2622 27.8261 41.1849 28.0267H41.225V28.2273H37.4543V28.0267H37.4944C38.417 27.8261 38.8984 27.5052 38.8984 26.382V13.0642C38.8984 11.941 38.417 11.6201 37.4944 11.4195H37.4543V11.219H42.99ZM86.7543 15.3507V26.3018L86.7549 26.3759C86.7746 27.5186 87.2549 27.8312 88.1583 28.0668L88.1984 28.2674H83.104V18.8005C83.104 17.5169 82.8232 17.1157 81.7 17.0355H81.6599V16.8349L86.7543 15.3507ZM24.2167 11.1387C26.6636 11.1387 28.7094 14.9897 28.7094 19.683C28.7094 24.4165 26.7037 28.2273 24.2167 28.2273C21.7296 28.2273 19.7239 24.4165 19.7239 19.683C19.7239 14.9496 21.7296 11.1387 24.2167 11.1387ZM31.1163 12.0212C32.0389 12.0212 32.7208 15.471 32.7208 19.683C32.7208 23.895 31.9988 27.3448 31.1163 27.3448C30.2426 27.3448 29.5262 23.9636 29.5119 19.8091L29.5117 19.683C29.5117 15.471 30.2338 12.0212 31.1163 12.0212ZM75.4422 16.0326C73.8376 16.0326 72.8348 18.1587 72.8348 21.448C72.8348 23.0125 73.1156 24.3763 73.5969 25.299C74.0382 26.1815 74.68 26.6628 75.4021 26.6628C76.1241 26.6628 76.6456 26.3419 76.8863 25.7402V16.9151C76.6055 16.3536 76.084 16.0326 75.4422 16.0326ZM63.047 16.0728C61.6029 16.0728 60.7605 17.7977 60.6401 20.2045V20.2446H65.0126C65.0928 18.3593 64.7719 17.1157 64.1702 16.514C63.8493 16.2332 63.4882 16.0728 63.047 16.0728ZM84.7887 10.537C85.952 10.537 86.8346 11.4195 86.8346 12.5828C86.8346 13.7461 85.952 14.6287 84.7887 14.6287C83.6254 14.6287 82.7429 13.7461 82.7429 12.5828C82.7429 11.4195 83.6254 10.537 84.7887 10.537Z" fill="white"/>
</g>
<defs>
<clipPath id="clip0_1391_11713">
<rect width="120.833" height="40" fill="white" transform="translate(0.75)"/>
</clipPath>
</defs>
</svg>
