<svg width="44" height="44" viewBox="0 0 44 44" fill="none" xmlns="http://www.w3.org/2000/svg">
<rect width="44" height="44" rx="22" fill="#FDDC2B"/>
<path d="M29.633 17.9966C29.646 18.1716 29.646 18.3456 29.646 18.5196C29.646 23.8446 25.593 29.9806 18.186 29.9806C15.904 29.9806 13.784 29.3196 12 28.1716C12.324 28.2086 12.636 28.2216 12.973 28.2216C14.786 28.2259 16.5476 27.6197 17.974 26.5006C17.1334 26.4853 16.3186 26.208 15.6432 25.7073C14.9679 25.2066 14.4658 24.5075 14.207 23.7076C14.456 23.7446 14.706 23.7696 14.968 23.7696C15.329 23.7696 15.692 23.7196 16.029 23.6326C15.1168 23.4484 14.2965 22.9539 13.7076 22.2332C13.1188 21.5126 12.7977 20.6102 12.799 19.6796V19.6296C13.336 19.9286 13.959 20.1156 14.619 20.1406C14.0661 19.7731 13.6127 19.2746 13.2993 18.6893C12.986 18.1041 12.8223 17.4504 12.823 16.7866C12.823 16.0386 13.022 15.3526 13.371 14.7546C14.3831 15.9996 15.6455 17.0181 17.0763 17.7442C18.5072 18.4703 20.0746 18.8878 21.677 18.9696C21.615 18.6696 21.577 18.3586 21.577 18.0466C21.5767 17.5175 21.6807 16.9936 21.8831 16.5048C22.0854 16.016 22.3821 15.5718 22.7562 15.1977C23.1303 14.8237 23.5744 14.527 24.0632 14.3246C24.5521 14.1223 25.076 14.0183 25.605 14.0186C26.765 14.0186 27.812 14.5046 28.548 15.2906C29.4498 15.1162 30.3145 14.787 31.104 14.3176C30.8034 15.2484 30.1738 16.0377 29.333 16.5376C30.1328 16.4463 30.9144 16.236 31.652 15.9136C31.1011 16.7167 30.4185 17.4209 29.633 17.9966Z" fill="#211145"/>
</svg>
