<svg width="108" height="40" viewBox="0 0 108 40" fill="none" xmlns="http://www.w3.org/2000/svg">
<g clip-path="url(#clip0_1391_11711)">
<path d="M37.6964 28.9791V16.8499H37.9124L46.7413 28.9791H49.5197V11.1672H46.4326V23.2659H46.2165L37.3877 11.1672H34.6093V28.9791H37.6964ZM58.2559 29.2541C62.3308 29.2541 64.8313 26.6266 64.8313 22.2271C64.8313 17.8581 62.3308 15.2001 58.2559 15.2001C54.2119 15.2001 51.6806 17.8581 51.6806 22.2271C51.7114 26.6266 54.1811 29.2541 58.2559 29.2541ZM58.2559 26.6877C56.095 26.6877 54.8602 25.0685 54.8602 22.2271C54.8602 19.4163 56.095 17.7665 58.2559 17.7665C60.4168 17.7665 61.6517 19.4163 61.6517 22.2271C61.6517 25.0685 60.4168 26.6877 58.2559 26.6877ZM67.6405 12.1754V15.5667H65.4796V18.0109H67.6405V25.374C67.6405 28.0015 68.8753 29.0402 72.0241 29.0402C72.6106 29.0402 73.1971 28.9791 73.6602 28.8875V26.5044C73.2897 26.535 73.0428 26.5655 72.6106 26.5655C71.314 26.5655 70.7275 25.985 70.7275 24.6407V18.0109H73.6602V15.5667H70.7275V12.1754H67.6405ZM75.5124 28.9791H78.5994V15.4751H75.5124V28.9791ZM77.0559 13.2448C78.0746 13.2448 78.9081 12.4199 78.9081 11.4116C78.9081 10.3729 78.0746 9.54795 77.0559 9.54795C76.0372 9.54795 75.2037 10.3729 75.2037 11.4116C75.2037 12.4199 76.0372 13.2448 77.0559 13.2448ZM87.0579 29.2541C91.1327 29.2541 93.6332 26.6266 93.6332 22.2271C93.6332 17.8581 91.1327 15.2001 87.0579 15.2001C83.0139 15.2001 80.4825 17.8581 80.4825 22.2271C80.4825 26.6266 82.9521 29.2541 87.0579 29.2541ZM87.0579 26.6877C84.8969 26.6877 83.6621 25.0685 83.6621 22.2271C83.6621 19.4163 84.8969 17.7665 87.0579 17.7665C89.1879 17.7665 90.4536 19.4163 90.4536 22.2271C90.4227 25.0685 89.1879 26.6877 87.0579 26.6877ZM95.4546 28.9791H98.5416V21.1272C98.5416 19.1413 99.7147 17.8887 101.536 17.8887C103.419 17.8887 104.283 18.9275 104.283 20.9745V28.9791H107.37V20.2412C107.37 17.0027 105.703 15.2001 102.678 15.2001C100.641 15.2001 99.2825 16.1167 98.6342 17.6443H98.4181V15.4751H95.4237C95.4546 15.4751 95.4546 28.9791 95.4546 28.9791Z" fill="white"/>
<path fill-rule="evenodd" clip-rule="evenodd" d="M5.01005 10.0272C5.90853 10.752 6.23351 10.6948 7.91578 10.5803L23.7635 9.62661C24.1076 9.62661 23.8208 9.28327 23.7061 9.24512L21.068 7.35674C20.571 6.97525 19.8828 6.51746 18.602 6.63191L3.27043 7.7573C2.71605 7.81453 2.60135 8.10065 2.83075 8.31047L5.01005 10.0272ZM5.96588 13.7086V30.3416C5.96588 31.2381 6.40556 31.5623 7.41874 31.5051L24.834 30.4942C25.8472 30.4369 25.9619 29.8265 25.9619 29.1017V12.5832C25.9619 11.8583 25.6751 11.4578 25.0634 11.515L6.86436 12.5832C6.19528 12.6404 5.96588 12.9837 5.96588 13.7086ZM23.1517 14.6051C23.2664 15.101 23.1517 15.616 22.6547 15.6732L21.8136 15.8449V28.1289C21.0871 28.5104 20.4181 28.7393 19.8446 28.7393C18.9461 28.7393 18.7167 28.4532 18.0476 27.6139L12.5611 19.0113V27.3278L14.3007 27.7093C14.3007 27.7093 14.3007 28.7202 12.9052 28.7202L9.04366 28.9491C8.92896 28.7202 9.04366 28.1671 9.42599 28.0526L10.4392 27.7665V16.7796L9.04366 16.6651C8.92896 16.1692 9.21571 15.4443 9.99949 15.3871L14.1478 15.101L19.8637 23.799V16.112L18.4108 15.9403C18.2961 15.3299 18.7549 14.8721 19.3093 14.8149L23.1517 14.6051ZM1.98961 6.23134L17.952 5.06779C19.9019 4.89612 20.4181 5.01057 21.6415 5.90707L26.7266 9.47401C27.5677 10.0844 27.8544 10.2561 27.8544 10.9237V30.5132C27.8544 31.734 27.4148 32.4588 25.8472 32.5733L7.32316 33.6987C6.13793 33.7559 5.58355 33.5842 4.97181 32.8022L1.20583 27.9382C0.53675 27.0417 0.25 26.3741 0.25 25.592V8.17694C0.25 7.16599 0.708799 6.34579 1.98961 6.23134Z" fill="white"/>
</g>
<defs>
<clipPath id="clip0_1391_11711">
<rect width="107.5" height="40" fill="white" transform="translate(0.25)"/>
</clipPath>
</defs>
</svg>
