<svg width="143" height="40" viewBox="0 0 143 40" fill="none" xmlns="http://www.w3.org/2000/svg">
<g clip-path="url(#clip0_1391_11715)">
<path d="M4.03109 16.3784C4.03109 14.1781 2.91665 12.3601 0.833313 10.8333H5.67554C6.52913 11.4835 7.22074 12.3224 7.69627 13.2844C8.1718 14.2463 8.41836 15.3053 8.41665 16.3784C8.41836 17.4515 8.1718 18.5104 7.69627 19.4724C7.22074 20.4343 6.52913 21.2732 5.67554 21.9234C7.24776 22.5791 8.1422 24.1792 8.1422 26.4695V30.8333H3.75776V26.4695C3.75776 24.2881 2.71665 22.7613 0.834424 21.9245C2.91776 20.3966 4.0322 18.5797 4.0322 16.3795L4.03109 16.3784ZM13.5333 16.3784C13.5333 14.1781 12.4189 12.3601 10.3355 10.8333H15.1789C16.0323 11.4836 16.7237 12.3226 17.199 13.2845C17.6743 14.2465 17.9207 15.3054 17.9189 16.3784C17.9207 17.4514 17.6743 18.5103 17.199 19.4722C16.7237 20.4342 16.0323 21.2731 15.1789 21.9234C16.75 22.5791 17.6455 24.1792 17.6455 26.4695V30.8333H13.26V26.4695C13.26 24.2881 12.2178 22.7613 10.3355 21.9245C12.4189 20.3966 13.5333 18.5797 13.5333 16.3795V16.3784ZM23.0378 16.3784C23.0378 14.1781 21.9233 12.3601 19.84 10.8333H24.6822C25.5358 11.4835 26.2274 12.3224 26.7029 13.2844C27.1785 14.2463 27.425 15.3053 27.4233 16.3784C27.425 17.4515 27.1785 18.5104 26.7029 19.4724C26.2274 20.4343 25.5358 21.2732 24.6822 21.9234C26.2544 22.5791 27.1489 24.1792 27.1489 26.4695V30.8333H22.7633V26.4695C22.7633 24.2881 21.7222 22.7613 19.84 21.9245C21.9233 20.3966 23.0378 18.5797 23.0378 16.3795V16.3784ZM40.78 27.1996H37.4555V14.4693H45.6244C49.5533 14.4693 51.49 15.925 51.49 18.3064C51.49 19.9243 50.54 21.1422 48.7678 21.7612C50.5944 22.0334 51.4167 22.9969 51.4167 24.7249V27.1974H48.0544V24.8704C48.0544 23.4147 47.3233 22.8335 45.4044 22.8335H40.7822V27.1996H40.78ZM45.44 16.3239H40.78V20.98H45.4033C47.0844 20.98 48.1255 20.0521 48.1255 18.5975C48.1255 17.1607 47.1589 16.3239 45.44 16.3239V16.3239ZM57.2633 14.4693H53.9378V27.1996H57.2633V14.4693ZM67.46 23.0513H63.4033V27.1974H60.0767V14.4693H67.5322C71.4611 14.4693 73.5267 16.1061 73.5267 18.7253C73.5267 21.4334 71.4256 23.0513 67.46 23.0513V23.0513ZM67.3867 16.3239H63.4033V21.1967H67.35C69.0678 21.1967 70.1278 20.3244 70.1278 18.7431C70.1278 17.1974 69.0678 16.3239 67.3867 16.3239ZM82.8833 23.0513H78.8267V27.1974H75.5V14.4693H82.9556C86.8845 14.4693 88.95 16.1061 88.95 18.7253C88.95 21.4334 86.8478 23.0513 82.8833 23.0513V23.0513ZM82.81 16.3239H78.8267V21.1967H82.7733C84.4911 21.1967 85.5511 20.3244 85.5511 18.7431C85.5511 17.1974 84.4911 16.3239 82.81 16.3239V16.3239ZM94.2489 14.4693V25.306H102.546V27.1996H90.9233V14.4693H94.2489V14.4693ZM107.952 14.4693H104.627V27.1996H107.952V14.4693ZM112.96 18.7242V27.1996H110.767V14.4693H113.254L122.318 22.9424V14.4693H124.511V27.1996H122.026L112.96 18.7231V18.7242ZM135.367 15.9605C132.204 15.9605 130.14 17.9608 130.14 20.9422C130.14 23.887 132.113 25.7061 135.183 25.7061H135.402C136.444 25.7061 137.613 25.4872 138.692 25.1427V21.7056H133.32V19.8877H141.944V25.8694C140.154 26.7973 137.449 27.5252 135.257 27.5252H134.964C129.92 27.5252 126.668 24.8693 126.668 21.0144C126.668 17.1962 130.012 14.1426 135.147 14.1426H135.439C137.578 14.1426 140.026 14.8149 141.836 15.8694L140.884 17.414C139.259 16.5239 137.321 15.9605 135.586 15.9605H135.367V15.9605Z" fill="white"/>
</g>
<defs>
<clipPath id="clip0_1391_11715">
<rect width="141.667" height="40" fill="white" transform="translate(0.833313)"/>
</clipPath>
</defs>
</svg>
